<svg xmlns="http://www.w3.org/2000/svg" width="20" height="16pt" viewBox="0 0 15 16"><path d="M7.969.203C3.96.203 0 2.34 0 5.801 0 8 1.547 9.25 2.484 9.25c.387 0 .61-.863.61-1.105 0-.293-.926-.91-.926-2.122 0-2.511 2.39-4.293 5.484-4.293 2.66 0 4.63 1.211 4.63 3.434 0 1.656-.833 4.77-3.528 4.77-.973 0-1.805-.563-1.805-1.368 0-1.183 1.031-2.324 1.031-3.543 0-2.07-3.668-1.695-3.668.805 0 .524.083 1.106.375 1.586-.539 1.856-1.64 4.621-1.64 6.531 0 .594.105 1.172.176 1.766.132.117.066.105.27.047C5.46 13.602 5.39 13.18 6.28 10.355c.48.73 1.723 1.125 2.707 1.125 4.15 0 6.013-3.234 6.013-6.148C15 2.227 11.648.203 7.969.203zm0 0"/></svg>